<svg xmlns="http://www.w3.org/2000/svg" viewBox="200 100 800 740"><defs><linearGradient id="l" x1="0" y1="0" x2="1" y2="1"><stop offset="0" stop-color="#FFF176"/><stop offset="1" stop-color="#FFD400"/></linearGradient><linearGradient id="d" x1="0" y1="0" x2="1" y2="1"><stop offset="0" stop-color="#F5B800"/><stop offset="1" stop-color="#C98A00"/></linearGradient><filter id="g" x="-20%" y="-20%" width="140%" height="140%"><feGaussianBlur stdDeviation="14" result="b"/><feMerge><feMergeNode in="b"/><feMergeNode in="SourceGraphic"/></feMerge></filter></defs><g filter="url(#g)"><polygon points="575,470 602,394 575,200" fill="url(#l)"/><polygon points="575,470 548,394 575,200" fill="url(#d)"/><polygon points="575,470 549,548 582,745" fill="url(#l)"/><polygon points="575,470 604,546 582,745" fill="url(#d)"/><polygon points="575,470 504,448 340,510" fill="url(#l)"/><polygon points="575,470 515,514 340,510" fill="url(#d)"/><polygon points="575,470 658,510 870,467" fill="url(#l)"/><polygon points="575,470 657,428 870,467" fill="url(#d)"/><polygon points="575,470 705,393 978,122" fill="url(#l)"/><polygon points="575,470 670,352 978,122" fill="url(#d)"/><polygon points="575,470 461,548 228,812" fill="url(#l)"/><polygon points="575,470 495,583 228,812" fill="url(#d)"/><polygon points="575,470 500,395 270,255" fill="url(#l)"/><polygon points="575,470 479,425 270,255" fill="url(#d)"/><polygon points="575,470 664,581 950,800" fill="url(#l)"/><polygon points="575,470 696,544 950,800" fill="url(#d)"/><circle cx="575" cy="470" r="34" fill="#FFF59D"/></g></svg>